<mxfile host="app.diagrams.net" modified="2022-08-23T08:36:32.896Z" agent="5.0 (Windows NT 10.0; Win64; x64) AppleWebKit/537.36 (KHTML, like Gecko) Chrome/104.0.0.0 Safari/537.36" etag="UQZYYPToap44vqZnW4HN" version="20.2.6" type="github">
  <diagram id="L18wo2dV5QoXMUSqpj3F" name="Page-1">
    <mxGraphModel dx="782" dy="436" grid="1" gridSize="10" guides="1" tooltips="1" connect="1" arrows="1" fold="1" page="1" pageScale="1" pageWidth="850" pageHeight="1100" math="0" shadow="0">
      <root>
        <mxCell id="0" />
        <mxCell id="1" parent="0" />
        <mxCell id="z-Lfv9n5paFSjJTuQqUr-1" value="Usuarios" style="swimlane;" parent="1" vertex="1">
          <mxGeometry x="30" y="80" width="150" height="170" as="geometry">
            <mxRectangle x="60" y="250" width="140" height="30" as="alternateBounds" />
          </mxGeometry>
        </mxCell>
        <mxCell id="z-Lfv9n5paFSjJTuQqUr-7" value="&lt;div style=&quot;text-align: left;&quot;&gt;&lt;span style=&quot;background-color: initial;&quot;&gt;&lt;font style=&quot;font-size: 12px;&quot;&gt;_id: automático&lt;/font&gt;&lt;/span&gt;&lt;/div&gt;&lt;div style=&quot;text-align: left;&quot;&gt;&lt;span style=&quot;background-color: initial;&quot;&gt;&lt;font style=&quot;font-size: 12px;&quot;&gt;nombre: string&lt;/font&gt;&lt;/span&gt;&lt;/div&gt;&lt;div style=&quot;text-align: left;&quot;&gt;&lt;span style=&quot;background-color: initial;&quot;&gt;&lt;font style=&quot;font-size: 12px;&quot;&gt;email: string&lt;/font&gt;&lt;/span&gt;&lt;/div&gt;&lt;div style=&quot;text-align: left;&quot;&gt;&lt;span style=&quot;background-color: initial;&quot;&gt;&lt;font style=&quot;font-size: 12px;&quot;&gt;password: string - crypt&lt;/font&gt;&lt;/span&gt;&lt;/div&gt;&lt;div style=&quot;text-align: left;&quot;&gt;&lt;span style=&quot;background-color: initial;&quot;&gt;&lt;font style=&quot;font-size: 12px;&quot;&gt;google: boolean&lt;/font&gt;&lt;/span&gt;&lt;/div&gt;&lt;div style=&quot;text-align: left;&quot;&gt;&lt;span style=&quot;background-color: initial;&quot;&gt;&lt;font style=&quot;font-size: 12px;&quot;&gt;role: string&lt;/font&gt;&lt;/span&gt;&lt;/div&gt;&lt;div style=&quot;text-align: left;&quot;&gt;&lt;span style=&quot;background-color: initial;&quot;&gt;&lt;font style=&quot;font-size: 12px;&quot;&gt;img: string&lt;/font&gt;&lt;/span&gt;&lt;/div&gt;&lt;div style=&quot;text-align: left;&quot;&gt;&lt;span style=&quot;background-color: initial;&quot;&gt;&lt;font style=&quot;font-size: 12px;&quot;&gt;estado: boolean&lt;/font&gt;&lt;/span&gt;&lt;/div&gt;&lt;div style=&quot;text-align: left;&quot;&gt;&lt;br&gt;&lt;/div&gt;" style="text;html=1;align=center;verticalAlign=middle;resizable=0;points=[];autosize=1;strokeColor=none;fillColor=none;" parent="z-Lfv9n5paFSjJTuQqUr-1" vertex="1">
          <mxGeometry y="30" width="150" height="140" as="geometry" />
        </mxCell>
        <mxCell id="z-Lfv9n5paFSjJTuQqUr-5" value="Categorias" style="swimlane;" parent="1" vertex="1">
          <mxGeometry x="295" y="115" width="120" height="80" as="geometry" />
        </mxCell>
        <mxCell id="z-Lfv9n5paFSjJTuQqUr-8" value="_id: automático&lt;br&gt;nombre: string&lt;br&gt;usuario: objectId" style="text;html=1;align=left;verticalAlign=middle;resizable=0;points=[];autosize=1;strokeColor=none;fillColor=none;fontSize=12;" parent="z-Lfv9n5paFSjJTuQqUr-5" vertex="1">
          <mxGeometry x="10" y="20" width="110" height="60" as="geometry" />
        </mxCell>
        <mxCell id="z-Lfv9n5paFSjJTuQqUr-6" value="Productos" style="swimlane;" parent="1" vertex="1">
          <mxGeometry x="550" y="110" width="120" height="130" as="geometry" />
        </mxCell>
        <mxCell id="z-Lfv9n5paFSjJTuQqUr-9" value="_id: automático&lt;br&gt;nombre: string&lt;br&gt;precioUni: number&lt;br&gt;categoria: objectId&lt;br&gt;disponible: boolean&lt;br&gt;usuario: objectId" style="text;html=1;align=left;verticalAlign=middle;resizable=0;points=[];autosize=1;strokeColor=none;fillColor=none;fontSize=12;" parent="z-Lfv9n5paFSjJTuQqUr-6" vertex="1">
          <mxGeometry x="10" y="30" width="130" height="100" as="geometry" />
        </mxCell>
        <mxCell id="z-Lfv9n5paFSjJTuQqUr-10" value="" style="fontSize=12;html=1;endArrow=diamond;endFill=0;rounded=0;exitX=0.996;exitY=0.1;exitDx=0;exitDy=0;exitPerimeter=0;entryX=0;entryY=0.5;entryDx=0;entryDy=0;edgeStyle=elbowEdgeStyle;strokeColor=default;" parent="1" source="z-Lfv9n5paFSjJTuQqUr-7" target="z-Lfv9n5paFSjJTuQqUr-5" edge="1">
          <mxGeometry width="100" height="100" relative="1" as="geometry">
            <mxPoint x="340" y="120" as="sourcePoint" />
            <mxPoint x="440" y="20" as="targetPoint" />
            <Array as="points">
              <mxPoint x="237" y="160" />
            </Array>
          </mxGeometry>
        </mxCell>
        <mxCell id="z-Lfv9n5paFSjJTuQqUr-14" value="" style="fontSize=12;html=1;endArrow=diamond;endFill=0;rounded=0;exitX=0.996;exitY=0.1;exitDx=0;exitDy=0;exitPerimeter=0;edgeStyle=elbowEdgeStyle;entryX=0;entryY=0.5;entryDx=0;entryDy=0;" parent="1" target="z-Lfv9n5paFSjJTuQqUr-6" edge="1">
          <mxGeometry width="100" height="100" relative="1" as="geometry">
            <mxPoint x="410" y="149.5" as="sourcePoint" />
            <mxPoint x="510" y="170" as="targetPoint" />
            <Array as="points">
              <mxPoint x="467.6" y="185.5" />
            </Array>
          </mxGeometry>
        </mxCell>
        <mxCell id="z-Lfv9n5paFSjJTuQqUr-15" value="" style="fontSize=12;html=1;endArrow=diamond;endFill=0;rounded=0;exitX=1;exitY=0.386;exitDx=0;exitDy=0;exitPerimeter=0;entryX=0;entryY=0.75;entryDx=0;entryDy=0;edgeStyle=elbowEdgeStyle;" parent="1" source="z-Lfv9n5paFSjJTuQqUr-7" target="z-Lfv9n5paFSjJTuQqUr-6" edge="1">
          <mxGeometry width="100" height="100" relative="1" as="geometry">
            <mxPoint x="199.39999999999998" y="144" as="sourcePoint" />
            <mxPoint x="315" y="175" as="targetPoint" />
            <Array as="points">
              <mxPoint x="257" y="180" />
            </Array>
          </mxGeometry>
        </mxCell>
        <mxCell id="z-Lfv9n5paFSjJTuQqUr-16" value="Base de datos: &lt;b&gt;Super-Café&lt;/b&gt;" style="text;html=1;align=center;verticalAlign=middle;resizable=0;points=[];autosize=1;strokeColor=none;fillColor=none;fontSize=12;" parent="1" vertex="1">
          <mxGeometry x="5" y="25" width="170" height="30" as="geometry" />
        </mxCell>
      </root>
    </mxGraphModel>
  </diagram>
</mxfile>
